<svg width="63" height="63" xmlns="http://www.w3.org/2000/svg"><g transform="translate(1 1)" fill="none" fill-rule="evenodd"><ellipse fill="#204ECF" fill-rule="nonzero" opacity=".05" cx="51.1" cy="50.98" rx="10.01" ry="10"/><ellipse stroke="#204ECF" stroke-width=".75" cx="51.1" cy="50.98" rx="10.01" ry="10"/><path stroke="#204ECF" stroke-width=".75" d="M37.71 25.54l-9.39 9.98-4.7-4.99"/><ellipse fill="#204ECF" fill-rule="nonzero" opacity=".05" cx="51.1" cy="10.08" rx="10.01" ry="10"/><ellipse stroke="#204ECF" stroke-width=".75" cx="51.1" cy="10.08" rx="10.01" ry="10"/><ellipse fill="#204ECF" fill-rule="nonzero" opacity=".05" cx="10.23" cy="10.08" rx="10.01" ry="10"/><ellipse stroke="#204ECF" stroke-width=".75" cx="10.23" cy="10.08" rx="10.01" ry="10"/><ellipse fill="#204ECF" fill-rule="nonzero" opacity=".05" cx="10.23" cy="50.98" rx="10.01" ry="10"/><ellipse stroke="#204ECF" stroke-width=".75" cx="10.23" cy="50.98" rx="10.01" ry="10"/><path d="M10.23 20.08v20.45m10.42 10.45h20.44m10.01-30.9v20.45M20.65 10.08h20.44" stroke="#204ECF" stroke-width=".75"/><g transform="translate(5 5)" stroke="#204ECF" stroke-width=".75"><circle cx="5.23" cy="2.3" r="2.11"/><path d="M.83 9.96a4.45 4.45 0 014.4-3.75c1.1 0 2.11.39 2.9 1.07s1.34 1.61 1.5 2.69"/></g><g transform="translate(46 46)" stroke="#204ECF" stroke-width=".75"><circle cx="5.1" cy="2.2" r="2.11"/><path d="M.7 9.86a4.45 4.45 0 014.4-3.75c1.1 0 2.11.39 2.9 1.07s1.34 1.61 1.5 2.69"/></g><path stroke="#204ECF" stroke-width=".75" d="M51.1 4.61v5.47h5.47m-46.34 44.4V50.1m3 4.38v-7m-6 7v-2.19"/></g></svg>